<svg id="svg2" xmlns="http://www.w3.org/2000/svg" viewBox="0 0 28.43 41.29"><defs><style>.cls-1{fill:#fff;stroke:#000;stroke-width:0.09px;}.cls-2,.cls-3{isolation:isolate;}.cls-3{font-size:5.45px;font-family:Arial;}.cls-3,.cls-4{fill:#df0000;}</style></defs><title>2Htesting</title><g id="Layer_1"><path id="path5" class="cls-1" d="M166.84,241.25a1.17,1.17,0,0,1-1.17,1.17h-26a1.17,1.17,0,0,1-1.17-1.17V202.38a1.17,1.17,0,0,1,1.17-1.17h26a1.17,1.17,0,0,1,1.17,1.17v38.87Z" transform="translate(-138.45 -201.17)"/></g><g id="text3788" class="cls-2"><text class="cls-3" transform="translate(1.49 4.77)">2</text></g><g id="layer1-9-6"><path id="hl-8" class="cls-4" d="M142.42,206.66a1.07,1.07,0,0,0-1,.93,1.07,1.07,0,0,0-1-.93,1.16,1.16,0,0,0-1.23,1.2c0,1,1.87,2.08,2.28,3.6,0.39-1.52,2.28-2.56,2.28-3.6A1.16,1.16,0,0,0,142.42,206.66Z" transform="translate(-138.45 -201.17)"/></g><g id="text3788-4" class="cls-2"><text class="cls-3" transform="translate(27.02 36.33) rotate(180)">2</text></g><g id="layer1-9-6-5"><path id="hl-8-1" class="cls-4" d="M163,236.77a1.07,1.07,0,0,0,1-.93,1.07,1.07,0,0,0,1,.93,1.16,1.16,0,0,0,1.23-1.2c0-1-1.87-2.08-2.28-3.6-0.39,1.52-2.28,2.56-2.28,3.6A1.16,1.16,0,0,0,163,236.77Z" transform="translate(-138.45 -201.17)"/></g><g id="layer1-9-6-8"><path id="hl-8-8" class="cls-4" d="M154.43,206.86a1.77,1.77,0,0,0-1.74,1.54,1.77,1.77,0,0,0-1.74-1.54,1.93,1.93,0,0,0-2,2c0,1.72,3.11,3.45,3.78,6,0.64-2.52,3.78-4.25,3.78-6A1.93,1.93,0,0,0,154.43,206.86Z" transform="translate(-138.45 -201.17)"/></g><g id="layer1-9-6-8-9"><path id="hl-8-8-5" class="cls-4" d="M151,236.67a1.77,1.77,0,0,0,1.74-1.54,1.77,1.77,0,0,0,1.74,1.54,1.93,1.93,0,0,0,2-2c0-1.72-3.11-3.45-3.78-6-0.64,2.52-3.78,4.25-3.78,6A1.93,1.93,0,0,0,151,236.67Z" transform="translate(-138.45 -201.17)"/></g></svg>